<?xml version="1.0" encoding="utf-8"?>
<svg xmlns="http://www.w3.org/2000/svg" viewBox="0 0 2000 1453">
  <g transform="translate(0.000000,1453.000000) scale(0.100000,-0.100000)" fill="#10B981">
    <path d="M8176.93,9825.51c-72.27-28.77-72.27-28.77-136.82-86.92c-35.67-32.39-220.63-180.77-410.89-329.8
      c-466.28-364.56-522.75-416.8-569.5-522.67c-30.6-69.12-34.58-139.64-12.69-218.73c11.7-42.01,31.74-76.6,311.92-543.15
      c164.53-273.81,299.13-502,299.19-507.2c-0.31-4.62-4.95-15.27-10.99-23.08c-6.13-8.31-210.24-177.86-453.34-377.15
      c-414.36-339.09-444.15-364.68-464.48-395.53c-39.73-61.85-58.68-126.19-57.69-192.37c0.68-37.54,15.54-99.83,33.91-141.42
      c42.5-99.22,165.5-304.12,354.31-590.38c133.4-201.99,197.05-304.29,300.7-478.88c23.1-38.75,33.66-51.46,64.37-75.91
      c36.98-29.16,36.98-29.16,1892.34-346.23c1855.45-316.57,1855.45-316.57,1920.31-295.37c65.4,21.62,65.4,21.62,573.7,439.32
      c457.92,376.37,510.73,420.93,529.71,449.4c30.57,46.77,45.57,87.88,52.1,142.9c9.51,83.62-7.4,150.42-62.52,250.23
      c-20.98,37.35-131.05,213.03-243.87,389.17c-234.65,365.78-327.55,526.06-318.56,548.44c1.43,2.88,198.56,167.37,438.03,364.68
      c240.01,197.74,444.13,367.29,453.8,377.08c25.5,25.29,60.57,79.09,75.17,115.07c14.77,36.99,23.99,88.43,23.39,126.47
      c-0.94,36.02-15.62,99.33-31.56,135.82c-51.08,115.23-165.16,306.14-338.34,567.91c-148.36,224.81-275.61,424.19-318.96,501.73
      c-26.01,46.52-26.01,46.52-84.83,83.03c-59.19,37.09-59.19,37.09-1897.41,349.69C8249.11,9853.78,8249.11,9853.78,8176.93,9825.51z
      M11542.31,8969.96c-2.43-3.22-110.97-92.87-240.27-199.26c-129.75-106.31-563.49-462.37-963.96-791.86
      C9687.43,7444.5,8640.84,6585.1,7841.69,5928.4c-277.71-228.23-284.23-233.36-297.92-227.91c-7.99,2.92-17.54,7.66-21.41,9.88
      c-6.81,4.28-537.33,874.61-546.34,896.41c-2.72,6.18-4.52,20.52-4.01,31.86c0.69,20.67,0.69,20.67,207.72,190.76
      c1410.63,1160.27,1901.5,1566.91,1912.47,1584.27c8.36,13.13,14.03,29.84,17.81,52.06c8.99,55.64-4.63,97.46-45.3,138.16
      c-24.13,24.37-24.13,24.37-787.53,154.19c-750.12,127.56-763.4,129.82-769.56,140.74c-3.63,6.33-5.27,13.37-4.29,16.32
      c1.35,2.37,44.82,39.15,95.83,81.41c51.47,42.18,219.72,180.92,374.28,308.48l281.06,231.3l1646.33-279.97
      C11292.55,9019.71,11546.55,8975.48,11542.31,8969.96z M11566.27,6669.72c14.42-23.24,74.78-125.5,134.31-227.09
      c59.07-101.52,132.14-220.49,162.42-264.1c103.86-151.23,128.76-196.01,121.52-219.2c-3.35-11.38-3.35-11.38-578.08,86.35
      c-528.48,89.87-574.64,98.24-574.73,106.05c0.2,15.04,125.26,124.22,345.75,301.38c244.59,196.96,334.1,263.34,351.04,260.46
      C11536.73,6712.16,11547.29,6699.45,11566.27,6669.72z"/>
  </g>
</svg>
